<svg id="shopping_cart-24px" xmlns="http://www.w3.org/2000/svg" width="60" height="60" viewBox="0 0 60 60">
  <path id="Trazado_108" data-name="Trazado 108" d="M0,0H60V60H0Z" fill="none"/>
  <path id="Trazado_109" data-name="Trazado 109" d="M17.8,46.8a5.6,5.6,0,1,0,5.6,5.6A5.593,5.593,0,0,0,17.8,46.8ZM1,2V7.6H6.6L16.68,28.852l-3.78,6.86a5.414,5.414,0,0,0-.7,2.688A5.616,5.616,0,0,0,17.8,44H51.4V38.4H18.976a.693.693,0,0,1-.7-.7l.084-.336L20.88,32.8H41.74a5.573,5.573,0,0,0,4.9-2.884L56.664,11.744A2.736,2.736,0,0,0,57,10.4a2.808,2.808,0,0,0-2.8-2.8H12.788L10.156,2H1ZM45.8,46.8a5.6,5.6,0,1,0,5.6,5.6A5.593,5.593,0,0,0,45.8,46.8Z" fill="#fff"/>
</svg>
