<svg id="settings-black-18dp" xmlns="http://www.w3.org/2000/svg" width="118.319" height="118.319" viewBox="0 0 118.319 118.319">
  <path id="Trazado_92" data-name="Trazado 92" d="M0,0H118.319V118.319H0Z" fill="none"/>
  <path id="Trazado_93" data-name="Trazado 93" d="M102.622,64.761a43.554,43.554,0,0,0,.409-5.6,43.555,43.555,0,0,0-.409-5.6l12.34-9.431a2.84,2.84,0,0,0,.7-3.658l-11.7-19.777a2.972,2.972,0,0,0-3.567-1.258L85.838,25.15a42.976,42.976,0,0,0-9.884-5.6L73.732,4.4A2.832,2.832,0,0,0,70.866,2H47.474a2.832,2.832,0,0,0-2.866,2.4L42.386,19.548a45.192,45.192,0,0,0-9.884,5.6L17.94,19.434a2.884,2.884,0,0,0-3.567,1.258L2.676,40.468a2.776,2.776,0,0,0,.7,3.658l12.34,9.431a44.323,44.323,0,0,0-.409,5.6,44.323,44.323,0,0,0,.409,5.6L3.378,74.192a2.84,2.84,0,0,0-.7,3.658l11.7,19.777a2.972,2.972,0,0,0,3.567,1.258L32.5,93.169a42.976,42.976,0,0,0,9.884,5.6l2.222,15.147a2.832,2.832,0,0,0,2.866,2.4H70.866a2.832,2.832,0,0,0,2.866-2.4l2.222-15.147a45.193,45.193,0,0,0,9.884-5.6L100.4,98.885a2.884,2.884,0,0,0,3.567-1.258l11.7-19.777a2.84,2.84,0,0,0-.7-3.658ZM59.17,79.165A20.011,20.011,0,1,1,79.639,59.159,20.263,20.263,0,0,1,59.17,79.165Z" fill="#fff"/>
</svg>
