<svg id="home-black-18dp" xmlns="http://www.w3.org/2000/svg" width="60" height="60" viewBox="0 0 60 60">
  <path id="Trazado_104" data-name="Trazado 104" d="M0,0H60V60H0Z" fill="none"/>
  <path id="Trazado_105" data-name="Trazado 105" d="M24.083,52.838V37.031H35.909V52.838A3.073,3.073,0,0,0,38.865,56h8.87a3.073,3.073,0,0,0,2.957-3.162V30.708h5.026a1.585,1.585,0,0,0,.976-2.751L31.977,4.151a2.837,2.837,0,0,0-3.962,0L3.3,27.957a1.592,1.592,0,0,0,.976,2.751H9.3V52.838A3.073,3.073,0,0,0,12.257,56h8.87A3.073,3.073,0,0,0,24.083,52.838Z" transform="translate(0 0)" fill="#fff"/>
</svg>
