<svg id="Logo" xmlns="http://www.w3.org/2000/svg" width="300" height="104.807" viewBox="0 0 300 104.807">
  <path id="Trazado_91" data-name="Trazado 91" d="M52.4,104.807A52.418,52.418,0,0,1,32.005,4.117,52.084,52.084,0,0,1,52.4,0H247.6a52.417,52.417,0,0,1,20.4,100.689,52.08,52.08,0,0,1-20.4,4.118ZM8.653,52.4A43.75,43.75,0,1,0,52.4,8.653,43.8,43.8,0,0,0,8.653,52.4Zm226.939-6.466A12.188,12.188,0,0,0,231,50.648a14.2,14.2,0,0,0-1.659,6.947,13.478,13.478,0,0,0,1.755,6.9,12.546,12.546,0,0,0,4.856,4.712,14.742,14.742,0,0,0,11.731.89,13.359,13.359,0,0,0,4.062-2.116,1.711,1.711,0,0,0,.769-1.49,2.287,2.287,0,0,0-.865-1.586,2.1,2.1,0,0,0-1.4-.506h-.071a2.744,2.744,0,0,0-1.562.553,9.528,9.528,0,0,1-2.524,1.274,9.161,9.161,0,0,1-3.053.553,9.7,9.7,0,0,1-4.856-1.2,8.773,8.773,0,0,1-4.388-6.3h18.283a2.2,2.2,0,0,0,1.586-.6,2.02,2.02,0,0,0,.625-1.514,15.2,15.2,0,0,0-1.417-6.707,10.866,10.866,0,0,0-4.111-4.567,12.111,12.111,0,0,0-6.443-1.658A13.2,13.2,0,0,0,235.592,45.937ZM194.247,33.869a2.41,2.41,0,0,0-.722,1.8V68.221a2.465,2.465,0,0,0,2.5,2.5h8.7a19.989,19.989,0,0,0,7.524-1.371,17.233,17.233,0,0,0,9.736-9.855,21.9,21.9,0,0,0,0-15.121,17.283,17.283,0,0,0-9.736-9.832,20.013,20.013,0,0,0-7.524-1.37h-8.7A2.469,2.469,0,0,0,194.247,33.869ZM161.283,60.8l7.627,9.152a1.816,1.816,0,0,0,.817.625,2.891,2.891,0,0,0,.914.145,2.168,2.168,0,0,0,1.562-.577,1.981,1.981,0,0,0,.626-1.418,2.578,2.578,0,0,0-.7-1.707L164.509,57.9l7.238-9.483a3.024,3.024,0,0,0,.7-1.779,2.3,2.3,0,0,0-.5-1.562,1.935,1.935,0,0,0-1.587-.649,2.654,2.654,0,0,0-.961.168,2.02,2.02,0,0,0-.817.649l-7.073,9.4-7.879-9.4a2.252,2.252,0,0,0-1.827-.817,1.97,1.97,0,0,0-1.586.625,2.088,2.088,0,0,0-.481,1.514,2.85,2.85,0,0,0,.673,1.659l7.922,9.378-7.441,9.324a2.83,2.83,0,0,0-.672,1.731,2.1,2.1,0,0,0,.553,1.466,1.962,1.962,0,0,0,1.514.6,2.3,2.3,0,0,0,1.731-.769l7.275-9.152h0Zm-38.85,1.652h17.228l2.71,6.731a2.329,2.329,0,0,0,.937,1.13,2.551,2.551,0,0,0,1.371.408,2.333,2.333,0,0,0,2.091-1.082,2.552,2.552,0,0,0,.169-2.428L133.381,34.855a2.342,2.342,0,0,0-2.356-1.682,2.448,2.448,0,0,0-2.356,1.682L115.16,67.115a2.485,2.485,0,0,0,.144,2.452,2.311,2.311,0,0,0,2.067,1.154,2.574,2.574,0,0,0,1.322-.385,2.424,2.424,0,0,0,.986-1.154l2.754-6.73h0Zm134.7-17.692a2.294,2.294,0,0,0-1.225,1.225,1.964,1.964,0,0,0,.072,1.611l10.193,21.49a2.535,2.535,0,0,0,2.307,1.586,2.353,2.353,0,0,0,2.212-1.586L280.881,47.6a2.089,2.089,0,0,0,.1-1.635,2.035,2.035,0,0,0-1.154-1.2,2.529,2.529,0,0,0-1.087-.26,2.33,2.33,0,0,0-.716.115,2.227,2.227,0,0,0-1.322,1.106l-8.275,18.028-8.36-18.028a2.222,2.222,0,0,0-1.274-1.106,2.073,2.073,0,0,0-.67-.115A2.106,2.106,0,0,0,257.131,44.759ZM43.486,72.235a2.453,2.453,0,0,1-.169-2.38l14.471-36.2A2.263,2.263,0,0,1,58.7,32.6a2.523,2.523,0,0,1,1.346-.384,2.34,2.34,0,0,1,2,1.033,2.443,2.443,0,0,1,.216,2.428l-14.471,36.2a1.96,1.96,0,0,1-.938,1.106,2.844,2.844,0,0,1-1.321.337A2.279,2.279,0,0,1,43.486,72.235ZM198.525,66.3V37.6h6.2a13.862,13.862,0,0,1,7.139,1.827,13.155,13.155,0,0,1,4.88,5.048,15.236,15.236,0,0,1,1.778,7.453,15.267,15.267,0,0,1-1.778,7.428,13.275,13.275,0,0,1-4.88,5.1,13.726,13.726,0,0,1-7.139,1.851ZM67.74,66.178a2.64,2.64,0,0,1-1.466-.818,2.28,2.28,0,0,1-.6-1.61,2.39,2.39,0,0,1,1.2-2.115l14.469-8.673L66.874,44.374a2.36,2.36,0,0,1-1.2-2.163,2.164,2.164,0,0,1,1.2-2.043,2.531,2.531,0,0,1,2.5.024l17.74,10.673a2.623,2.623,0,0,1,1.3,2.163,2.5,2.5,0,0,1-1.3,2.212L69.374,65.865a2.217,2.217,0,0,1-1.192.356A2.307,2.307,0,0,1,67.74,66.178Zm-31.875-.312L18.125,55.24a2.5,2.5,0,0,1-1.3-2.212,2.623,2.623,0,0,1,1.3-2.163l17.74-10.673a2.531,2.531,0,0,1,2.5-.024,2.164,2.164,0,0,1,1.2,2.043,2.36,2.36,0,0,1-1.2,2.163L23.9,52.962l14.469,8.673a2.39,2.39,0,0,1,1.2,2.115,2.28,2.28,0,0,1-.6,1.61,2.637,2.637,0,0,1-1.466.818,2.308,2.308,0,0,1-.442.044A2.219,2.219,0,0,1,35.865,65.865Zm102.13-7.549h-13.87l6.991-17.09L138,58.315v0Zm111.872-2.884H233.854a9.984,9.984,0,0,1,.825-2.572,7.778,7.778,0,0,1,2.956-3.294,8.79,8.79,0,0,1,4.688-1.2,7.01,7.01,0,0,1,6.682,4.111,9.758,9.758,0,0,1,.862,2.956h0Z" transform="translate(0 0)" fill="#fff"/>
</svg>
