<svg xmlns="http://www.w3.org/2000/svg" width="65.455" height="60" viewBox="0 0 65.455 60">
  <path id="iconmonstr-computer-10" d="M65.455,20.636a3.268,3.268,0,0,0-3.273-3.273h-18a3.268,3.268,0,0,0-3.273,3.273V57.727A3.268,3.268,0,0,0,44.182,61h18a3.268,3.268,0,0,0,3.273-3.273V20.636ZM35.455,61H13.636l7.088-8.182h14.73Zm17.727-2.727a2.727,2.727,0,1,1,2.725-2.727A2.727,2.727,0,0,1,53.182,58.273Zm9.545-8.182V25.48H43.636V50.091ZM57.273,11.909H51.818V6.455H5.455V41.909h30v5.455H0V1H57.273ZM55.909,22.818a1.364,1.364,0,0,0,0-2.727H50.455a1.364,1.364,0,0,0,0,2.727Z" transform="translate(0 -1)" fill="#fff" fill-rule="evenodd"/>
</svg>
