<svg xmlns="http://www.w3.org/2000/svg" width="60" height="60.004" viewBox="0 0 60 60.004">
  <path id="iconmonstr-paintbrush-7" d="M22.493,34.965A5,5,0,1,1,17.456,30,5,5,0,0,1,22.493,34.965ZM20.048,25A5,5,0,1,1,25,19.959,5,5,0,0,1,20.048,25ZM40,14.964a5,5,0,1,1-5.038-4.958A5.01,5.01,0,0,1,40,14.964ZM10,54.582c11.468.95,7.36-11.23,17.97-11.343l4.6,3.835C33.711,60.917,16.778,64,10,54.582ZM45.163,36.795c3.568-5.6,14.615-24.37,14.615-24.37a1.614,1.614,0,0,0-2.438-2.033S40.911,24.677,36.063,29.2c-3.83,3.58-3.848,5.215-5.088,11.118l4.2,3.5c5.568-2.288,7.17-2.6,9.988-7.028ZM13.608,48.81A24.951,24.951,0,0,1,29.8,5c9.6-.053,16.2,4.763,16.24,8.618L50.2,9.982C47.674,4.424,39.743-.131,29.758,0A29.991,29.991,0,0,0,7.058,49.32C9.453,50.55,12.366,50.142,13.608,48.81ZM45.6,44.045c2.648,4.925-3.378,8.425-8.863,9.98A15.449,15.449,0,0,1,33.3,59.8c13.138-1.478,22.653-10.76,15.665-19.723A19.482,19.482,0,0,1,45.6,44.045Z" transform="translate(0 0.001)" fill="#fff"/>
</svg>
