<svg xmlns="http://www.w3.org/2000/svg" width="60" height="65.455" viewBox="0 0 60 65.455">
  <path id="iconmonstr-flip-chart-2" d="M43.24,54.545l9.311,10.909H45.386L36.059,54.545H43.24Zm4.124-38.182H36.455v2.727H47.364ZM28.273,65.455h5.455V54.545H28.273Zm-18.867,0h7.167L25.9,54.545H18.719L9.405,65.455ZM47.364,21.818H36.455v2.727H47.364Zm0,5.455H36.455V30H47.364ZM24.182,35.455a9.52,9.52,0,0,0,9.409-8.182H22.818V16.5a9.525,9.525,0,0,0,1.364,18.955ZM25.545,16.5v8.045h8.045A9.5,9.5,0,0,0,25.545,16.5ZM47.364,32.727H36.455v2.727H47.364ZM61,8.182H58.273V49.091H3.727V8.182H1V0H61Zm-8.182,0H9.182V43.636H52.818Z" transform="translate(-1)" fill="#fff"/>
</svg>
