<svg xmlns="http://www.w3.org/2000/svg" width="60" height="55" viewBox="0 0 60 55">
  <path id="iconmonstr-tablet-5" d="M21.983,20.878a4.73,4.73,0,0,1,7.28,2.5,4.733,4.733,0,0,0-7.29,5.2A4.737,4.737,0,0,1,21.983,20.878Zm7.91,27A51.7,51.7,0,0,1,46.038,56L60,46.04c-3.62-5.077-2.625-8.63-6.222-13.678-1.815-2.542-3.055-3.235-4.612-3.235a10.251,10.251,0,0,0-1.81.21l1.268,1.775a.991.991,0,0,1-1.615,1.15l-1.13-1.585a1.692,1.692,0,0,0-1.49-.7,14.451,14.451,0,0,0-2.853.593l1.538,2.155a.991.991,0,0,1-1.615,1.15l-1.333-1.867a1.672,1.672,0,0,0-1.465-.7,13.8,13.8,0,0,0-2.965.678l1.625,2.28a.991.991,0,0,1-1.615,1.15l-6.6-9.232c-2.042-2.87-6.53.175-4.413,3.147L34.435,42.98a14.172,14.172,0,0,0-4.08-.737c-3.7.007-5.128,4.07-.463,5.635ZM23.105,41H7.5V6h45V24.79c3.4,1.388,5.978,5.115,7.5,8.43V6a5,5,0,0,0-5-5H5A5,5,0,0,0,0,6V41a5,5,0,0,0,5,5H22.063A6.872,6.872,0,0,1,23.1,41Z" transform="translate(0 -1)" fill="#fff"/>
</svg>
