<svg id="business_center-black-18dp" xmlns="http://www.w3.org/2000/svg" width="60" height="60" viewBox="0 0 60 60">
  <path id="Trazado_98" data-name="Trazado 98" d="M0,0H60V60H0Z" fill="none"/>
  <path id="Trazado_99" data-name="Trazado 99" d="M32.8,42H27.2a2.914,2.914,0,0,1-2.8-3H4.828V51a5.827,5.827,0,0,0,5.6,6H49.6a5.827,5.827,0,0,0,5.6-6V39H35.6A2.914,2.914,0,0,1,32.8,42ZM52.4,15H41.2C41.2,8.37,36.188,3,30,3S18.8,8.37,18.8,15H7.6A5.827,5.827,0,0,0,2,21v9a5.79,5.79,0,0,0,5.6,6H24.4V33a2.914,2.914,0,0,1,2.8-3h5.6a2.914,2.914,0,0,1,2.8,3v3H52.4A5.827,5.827,0,0,0,58,30V21A5.827,5.827,0,0,0,52.4,15Zm-28,0A5.827,5.827,0,0,1,30,9a5.827,5.827,0,0,1,5.6,6H24.4Z" fill="#fff"/>
</svg>
