<svg xmlns="http://www.w3.org/2000/svg" width="54.999" height="60" viewBox="0 0 54.999 60">
  <path id="iconmonstr-networking-7" d="M24.149,10.427c-1.45-.715-2.733-1.292-3.952-1.8C22.122,3.43,24.9,0,28.5,0,32,0,34.734,3.253,36.649,8.23c-1.23.527-2.5,1.117-3.93,1.847C31.249,6.16,29.574,4.39,28.5,4.39,27.394,4.39,25.649,6.265,24.149,10.427ZM28.5,55.61c-1.073,0-2.75-1.77-4.22-5.687-1.45.737-2.7,1.32-3.93,1.847C22.267,56.748,24.994,60,28.5,60c3.6,0,6.378-3.43,8.3-8.63-1.213-.5-2.493-1.078-3.953-1.8C31.349,53.735,29.6,55.61,28.5,55.61Zm-11.77-5.54c-4.792,1.763-11.945,3.48-14.79-.792-1.4-2.112-1.927-6.17,3.55-13.52a58.268,58.268,0,0,1,4.842-5.622,92.14,92.14,0,0,1,13.762-11.5,64.349,64.349,0,0,0-8.54-3.977,23.282,23.282,0,0,0-7.537-1.687c-1.27,0-2.215.267-2.523.723-.328.48-.345,1.957,1.112,4.6l.525-.03a4.831,4.831,0,0,1,0,9.66A4.788,4.788,0,0,1,2.389,23.1,4.853,4.853,0,0,1,3,20.728C.229,15.828.8,12.88,1.957,11.19c.81-1.19,2.523-2.6,6.06-2.6,6.285,0,14.752,4.15,20.2,7.365,5.535-3.407,14.292-7.9,20.76-7.9,3.553,0,5.265,1.453,6.077,2.673,1.405,2.112,1.928,6.17-3.55,13.517-7.71,10.343-23.04,21.515-34.78,25.83ZM48.074,21.585c3.765-5.048,3.88-7.7,3.415-8.4-.315-.472-1.23-.745-2.508-.745-4.882,0-12.315,3.648-16.595,6.118a99.636,99.636,0,0,1,8.8,6.542c-1.017,1.033-2.085,2.048-3.177,3.028a94.6,94.6,0,0,0-9.75-7.028,94.619,94.619,0,0,0-11.508,8.877,92.717,92.717,0,0,0,9.3,7.182c-1.305.828-2.625,1.62-4.13,2.45l-.032-.022a96.1,96.1,0,0,1-8.29-6.58c-7.045,7.195-9.03,12.41-8.1,13.812.315.472,1.23.745,2.507.745,5.875,0,15.2-5.042,20.718-8.66,6.772-4.44,14.5-10.82,19.34-17.317Zm5.942,17.728a4.86,4.86,0,0,0,.55-2.258,4.743,4.743,0,1,0-4.742,4.83l.645-.045c1.382,2.56,1.36,3.995,1.038,4.468a3.257,3.257,0,0,1-2.522.72c-4.005,0-9.583-2.363-13.175-4.145-1.2.855-2.692,1.87-4.148,2.8,4.815,2.592,11.895,5.737,17.323,5.737,3.538,0,5.25-1.415,6.06-2.6,1.153-1.685,1.725-4.625-1.028-9.5Z" transform="translate(-1.001)" fill="#fff"/>
</svg>
