<svg id="person_outline-black-18dp" xmlns="http://www.w3.org/2000/svg" width="60" height="60" viewBox="0 0 60 60">
  <path id="Trazado_94" data-name="Trazado 94" d="M0,0H60V60H0Z" fill="none"/>
  <path id="Trazado_95" data-name="Trazado 95" d="M30,10.175A6.825,6.825,0,1,1,23.175,17,6.824,6.824,0,0,1,30,10.175m0,29.25c9.653,0,19.825,4.745,19.825,6.825v3.575H10.175V46.25c0-2.08,10.173-6.825,19.825-6.825M30,4A13,13,0,1,0,43,17,13,13,0,0,0,30,4Zm0,29.25c-8.677,0-26,4.355-26,13v6.5A3.26,3.26,0,0,0,7.25,56h45.5A3.26,3.26,0,0,0,56,52.75v-6.5C56,37.6,38.677,33.25,30,33.25Z" transform="translate(0 0)" fill="#fff"/>
</svg>
