<svg id="mail_outline-24px" xmlns="http://www.w3.org/2000/svg" width="70" height="60" viewBox="0 0 70 60">
  <path id="Trazado_102" data-name="Trazado 102" d="M0,0H70V60H0Z" fill="none"/>
  <path id="Trazado_103" data-name="Trazado 103" d="M61.4,4H8.6a6.541,6.541,0,0,0-6.567,6.5L2,49.5A6.57,6.57,0,0,0,8.6,56H61.4A6.57,6.57,0,0,0,68,49.5v-39A6.57,6.57,0,0,0,61.4,4ZM58.1,49.5H11.9a3.285,3.285,0,0,1-3.3-3.25V17L31.5,31.1a6.622,6.622,0,0,0,7,0L61.4,17V46.25A3.285,3.285,0,0,1,58.1,49.5ZM35,26.75,8.6,10.5H61.4Z" transform="translate(0 0)" fill="#fff"/>
</svg>
